#define im_width 8
#define im_height 8
static char noisy_8_4_bits[] = {
0x80,0x00,0x00,0x10,0x00,0x08,0x00,0x00
};
