#define im_width 8
#define im_height 8
static char noisy_2_7_bits[] = {
0x20,0x00,0x00,0x80,0x00,0x00,0x04,0x00
};
