#define im_width 8
#define im_height 8
static char noisy_3_7_bits[] = {
0x00,0x00,0x20,0x00,0x00,0x10,0x00,0x20
};
