#define im_width 8
#define im_height 8
static char noisy_1_8_bits[] = {
0x00,0x04,0x00,0x00,0x04,0x00,0x00,0x02
};
