#define im_width 8
#define im_height 8
static char noisy_10_1_bits[] = {
0x00,0x00,0x00,0xc0,0x00,0x00,0x00,0x08
};
