#define im_width 8
#define im_height 8
static char noisy_10_2_bits[] = {
0x00,0x40,0x40,0x00,0x20,0x00,0x00,0x00
};
