#define im_width 8
#define im_height 8
static char noisy_10_3_bits[] = {
0x00,0x00,0x42,0x10,0x00,0x00,0x00,0x00
};
