#define im_width 8
#define im_height 8
static char noisy_4_6_bits[] = {
0x10,0x02,0x00,0x00,0x00,0x10,0x00,0x00
};
