#define im_width 8
#define im_height 8
static char noisy_1_4_bits[] = {
0x00,0x00,0x00,0x04,0x00,0x00,0x40,0x80
};
