#define im_width 8
#define im_height 8
static char noisy_4_1_bits[] = {
0x00,0x00,0x00,0x08,0x00,0x02,0x00,0x04
};
