#define im_width 8
#define im_height 8
static char noisy_8_6_bits[] = {
0x00,0x00,0x20,0x48,0x00,0x00,0x00,0x00
};
