#define im_width 8
#define im_height 8
static char noisy_1_2_bits[] = {
0x00,0x40,0x08,0x00,0x00,0x00,0x00,0x04
};
