#define im_width 8
#define im_height 8
static char noisy_6_4_bits[] = {
0x00,0x80,0xa0,0x00,0x00,0x00,0x00,0x00
};
