#define im_width 8
#define im_height 8
static char noisy_4_5_bits[] = {
0x80,0x00,0x00,0x00,0x10,0x00,0x00,0x02
};
