#define im_width 8
#define im_height 8
static char noisy_7_4_bits[] = {
0x00,0x00,0x20,0x00,0x01,0x00,0x00,0x80
};
