#define im_width 8
#define im_height 8
static char noisy_2_8_bits[] = {
0x01,0x00,0x00,0x00,0x00,0x00,0x20,0x08
};
