#define im_width 8
#define im_height 8
static char noisy_4_7_bits[] = {
0x00,0x00,0x00,0x80,0x48,0x00,0x00,0x00
};
