#define im_width 8
#define im_height 8
static char noisy_8_8_bits[] = {
0x00,0x00,0x00,0x00,0x00,0x88,0x00,0x01
};
