#define im_width 8
#define im_height 8
static char noisy_8_7_bits[] = {
0x44,0x00,0x00,0x00,0x00,0x00,0x00,0x20
};
