#define im_width 8
#define im_height 8
static char noisy_10_8_bits[] = {
0x00,0x00,0x80,0x18,0x00,0x00,0x00,0x00
};
