#define im_width 8
#define im_height 8
static char noisy_3_3_bits[] = {
0x00,0x02,0x00,0x01,0x80,0x00,0x00,0x00
};
