#define im_width 8
#define im_height 8
static char noisy_3_5_bits[] = {
0x00,0x00,0x00,0x90,0x00,0x00,0x00,0x40
};
