#define im_width 8
#define im_height 8
static char noisy_5_8_bits[] = {
0x00,0x00,0x02,0x00,0x00,0x00,0x02,0x01
};
