#define im_width 8
#define im_height 8
static char noisy_6_6_bits[] = {
0x00,0x01,0x00,0x00,0x00,0x20,0x00,0x04
};
