#define im_width 8
#define im_height 8
static char noisy_7_6_bits[] = {
0x00,0x00,0x02,0x01,0x00,0x00,0x20,0x00
};
