#define im_width 8
#define im_height 8
static char noisy_10_4_bits[] = {
0x00,0x00,0x00,0x00,0x00,0x30,0x20,0x00
};
