#define im_width 8
#define im_height 8
static char noisy_2_1_bits[] = {
0x40,0x00,0x08,0x00,0x00,0x00,0x00,0x08
};
