#define im_width 8
#define im_height 8
static char noisy_2_4_bits[] = {
0x04,0x00,0x00,0x00,0x40,0x00,0x01,0x00
};
