#define im_width 8
#define im_height 8
static char noisy_2_2_bits[] = {
0x00,0x00,0x20,0x00,0x08,0x04,0x00,0x00
};
