#define im_width 8
#define im_height 8
static char noisy_1_1_bits[] = {
0x08,0x04,0x80,0x00,0x00,0x00,0x00,0x00
};
