#define im_width 8
#define im_height 8
static char noisy_8_2_bits[] = {
0x00,0x00,0x80,0x00,0x00,0x01,0x00,0x01
};
