#define im_width 8
#define im_height 8
static char noisy_7_1_bits[] = {
0x00,0x00,0x20,0x00,0x00,0x02,0x20,0x00
};
