#define im_width 8
#define im_height 8
static char noisy_6_8_bits[] = {
0x00,0x00,0x80,0x00,0x20,0x00,0x00,0x20
};
