#define im_width 8
#define im_height 8
static char noisy_3_8_bits[] = {
0x00,0x00,0x00,0x00,0x00,0x10,0xa0,0x00
};
