#define im_width 8
#define im_height 8
static char noisy_8_5_bits[] = {
0x00,0x00,0x00,0x08,0x01,0x00,0x00,0x20
};
