#define im_width 8
#define im_height 8
static char noisy_4_4_bits[] = {
0x00,0x00,0x41,0x00,0x00,0x20,0x00,0x00
};
