#define im_width 8
#define im_height 8
static char noisy_2_6_bits[] = {
0x00,0x81,0x00,0x00,0x00,0x00,0x00,0x08
};
