#define im_width 8
#define im_height 8
static char noisy_6_5_bits[] = {
0x90,0x00,0x20,0x00,0x00,0x00,0x00,0x00
};
