#define im_width 8
#define im_height 8
static char noisy_5_3_bits[] = {
0x00,0x04,0x00,0x00,0x00,0x81,0x00,0x00
};
