#define im_width 8
#define im_height 8
static char noisy_8_1_bits[] = {
0x01,0x00,0x00,0x00,0x40,0x00,0x20,0x00
};
