#define im_width 8
#define im_height 8
static char noisy_7_7_bits[] = {
0x00,0x00,0x24,0x00,0x00,0x08,0x00,0x00
};
