#define im_width 8
#define im_height 8
static char noisy_9_2_bits[] = {
0x00,0x00,0x00,0x00,0x02,0x40,0x00,0x02
};
