#define im_width 8
#define im_height 8
static char _10_bits[] = {
0xff,0xff,0xd3,0xdb,0xdf,0xed,0xfd,0xf7
};
