#define im_width 8
#define im_height 8
static char _9_bits[] = {
0xff,0xff,0xff,0xe7,0xff,0xf5,0xff,0xf7
};
