#define im_width 8
#define im_height 8
static char im_bits[] = {
0xff,0xcf,0xef,0xfb,0xff,0xff,0xff,0xdf
};
