#define im_width 8
#define im_height 8
static char im_bits[] = {
0xff,0xf7,0xeb,0xdf,0xd7,0xdf,0xcb,0xd7
};
