#define im_width 8
#define im_height 8
static char im_bits[] = {
0xf3,0xf7,0xc3,0xdf,0xc9,0xe7,0xe3,0xf3
};
