#define im_width 8
#define im_height 8
static char im_bits[] = {
0xe7,0xab,0xbb,0xc7,0xd3,0xcb,0xff,0xf3
};
