#define im_width 8
#define im_height 8
static char im_bits[] = {
0xff,0xfb,0xf3,0xd1,0xf3,0xf7,0xe9,0xef
};
