#define im_width 8
#define im_height 8
static char im_bits[] = {
0xff,0x97,0xcb,0x87,0xa7,0xf7,0xcb,0xff
};
