#define im_width 8
#define im_height 8
static char _2_bits[] = {
0xff,0xfd,0xdd,0xd9,0xe7,0xe7,0xeb,0xef
};
