#define im_width 8
#define im_height 8
static char _7_bits[] = {
0xef,0xd9,0xe7,0xf7,0xf3,0xff,0xf1,0xef
};
